<svg width="24" height="24" viewBox="0 0 24 24" fill="none" xmlns="http://www.w3.org/2000/svg">
<path d="M10.6001 18.4867L17.2107 11.8773L16.2507 10.9173L10.5921 16.5773L7.74141 13.7253L6.78941 14.6773L10.6001 18.4867ZM4.82008 24C4.20675 24 3.69475 23.7947 3.28408 23.384C2.87253 22.9724 2.66675 22.46 2.66675 21.8467V2.15333C2.66675 1.54 2.87253 1.028 3.28408 0.617333C3.69475 0.205778 4.20675 0 4.82008 0H15.3334L21.3334 6V21.8467C21.3334 22.46 21.1281 22.972 20.7174 23.3827C20.3059 23.7942 19.7934 24 19.1801 24H4.82008ZM14.6667 6.66667H20.0001L14.6667 1.33333V6.66667Z" fill="#00384F"/>
</svg>
