<svg width="81" height="17" viewBox="0 0 81 17" fill="none" xmlns="http://www.w3.org/2000/svg">
<path d="M1.29 16V1.25H3.93V15.21L2.74 13.82H9.52V16H1.29ZM11.5825 16V5.38H14.1825V16H11.5825ZM12.8925 3.42C12.4658 3.42 12.0925 3.30667 11.7725 3.08C11.4592 2.84667 11.3025 2.52333 11.3025 2.11C11.3025 1.70333 11.4592 1.38667 11.7725 1.16C12.0925 0.933332 12.4658 0.819999 12.8925 0.819999C13.3125 0.819999 13.6792 0.933332 13.9925 1.16C14.3058 1.38667 14.4625 1.70333 14.4625 2.11C14.4625 2.52333 14.3058 2.84667 13.9925 3.08C13.6792 3.30667 13.3125 3.42 12.8925 3.42ZM24.2988 16V11.29C24.2988 11.0233 24.2988 10.79 24.2988 10.59C24.2988 10.3833 24.2988 10.1967 24.2988 10.03C24.2988 9.55 24.2288 9.12 24.0888 8.74C23.9554 8.35333 23.7221 8.05 23.3888 7.83C23.0621 7.61 22.6088 7.5 22.0288 7.5C21.5221 7.5 21.0721 7.62333 20.6788 7.87C20.2854 8.11 19.9754 8.44333 19.7488 8.87C19.5288 9.29 19.4188 9.77667 19.4188 10.33L18.5288 9.78C18.5288 8.89333 18.7288 8.10667 19.1288 7.42C19.5354 6.72667 20.0788 6.18333 20.7588 5.79C21.4388 5.39667 22.1921 5.2 23.0188 5.2C23.8721 5.2 24.5888 5.36667 25.1688 5.7C25.7554 6.03333 26.1954 6.50667 26.4887 7.12C26.7888 7.73333 26.9388 8.45333 26.9388 9.28C26.9388 9.6 26.9388 9.96 26.9388 10.36C26.9388 10.76 26.9388 11.1533 26.9388 11.54V16H24.2988ZM16.7887 16V5.38H19.4188V16H16.7887ZM37.8298 3.35H33.1598L34.1298 2.04V16H31.4898V2.04L32.5098 3.35H27.7998V1.25H37.8298V3.35ZM39.3313 11.54V9.67H46.7613L46.4613 10.17C46.4613 10.13 46.4613 10.0867 46.4613 10.04C46.4613 9.98667 46.4613 9.94333 46.4613 9.91C46.4613 9.45 46.3579 9.02 46.1513 8.62C45.9446 8.21333 45.6313 7.88667 45.2113 7.64C44.7913 7.38667 44.2579 7.26 43.6113 7.26C42.9713 7.26 42.4146 7.39667 41.9413 7.67C41.4746 7.93667 41.1113 8.32333 40.8513 8.83C40.5979 9.33667 40.4713 9.94333 40.4713 10.65C40.4713 11.3767 40.5946 12.0033 40.8413 12.53C41.0879 13.05 41.4479 13.45 41.9213 13.73C42.4013 14.0033 42.9846 14.14 43.6713 14.14C44.1379 14.14 44.5413 14.0967 44.8813 14.01C45.2213 13.9233 45.4979 13.8067 45.7113 13.66C45.9313 13.5067 46.0946 13.3433 46.2013 13.17C46.3146 12.9967 46.3813 12.8233 46.4013 12.65H49.0213C48.9813 13.0967 48.8313 13.5333 48.5713 13.96C48.3179 14.38 47.9613 14.7633 47.5013 15.11C47.0413 15.45 46.4813 15.7233 45.8213 15.93C45.1679 16.13 44.4213 16.23 43.5813 16.23C42.4413 16.23 41.4446 15.9967 40.5913 15.53C39.7379 15.0633 39.0713 14.4133 38.5913 13.58C38.1179 12.7467 37.8813 11.7933 37.8813 10.72C37.8813 9.62 38.1213 8.65667 38.6013 7.83C39.0879 7.00333 39.7613 6.36 40.6213 5.9C41.4813 5.43333 42.4679 5.2 43.5813 5.2C44.7279 5.2 45.7179 5.43333 46.5513 5.9C47.3913 6.36667 48.0379 7.01667 48.4913 7.85C48.9446 8.67667 49.1713 9.64 49.1713 10.74C49.1713 10.88 49.1679 11.03 49.1613 11.19C49.1546 11.35 49.1446 11.4667 49.1313 11.54H39.3313ZM56.5895 16.22C55.4695 16.22 54.4795 15.99 53.6195 15.53C52.7595 15.07 52.0862 14.4233 51.5995 13.59C51.1129 12.7567 50.8695 11.78 50.8695 10.66C50.8695 9.54667 51.1129 8.58 51.5995 7.76C52.0862 6.94 52.7595 6.31 53.6195 5.87C54.4795 5.42333 55.4695 5.2 56.5895 5.2C57.4295 5.2 58.1729 5.32333 58.8195 5.57C59.4662 5.81667 60.0095 6.14667 60.4495 6.56C60.8962 6.96667 61.2362 7.41667 61.4695 7.91C61.7029 8.39667 61.8195 8.88333 61.8195 9.37C61.8195 9.38333 61.8195 9.39667 61.8195 9.41C61.8195 9.42333 61.8195 9.43667 61.8195 9.45H59.2095C59.2095 9.41667 59.2062 9.38 59.1995 9.34C59.1929 9.3 59.1862 9.26 59.1795 9.22C59.1262 8.88 58.9895 8.57333 58.7695 8.3C58.5495 8.02 58.2562 7.79667 57.8895 7.63C57.5229 7.46333 57.0795 7.38 56.5595 7.38C56.0062 7.38 55.4995 7.50333 55.0395 7.75C54.5862 7.99 54.2229 8.35333 53.9495 8.84C53.6829 9.32667 53.5495 9.93333 53.5495 10.66C53.5495 11.38 53.6829 11.9933 53.9495 12.5C54.2162 13 54.5762 13.3833 55.0295 13.65C55.4895 13.91 55.9995 14.04 56.5595 14.04C57.1529 14.04 57.6362 13.95 58.0095 13.77C58.3895 13.5833 58.6762 13.3367 58.8695 13.03C59.0629 12.7167 59.1729 12.3767 59.1995 12.01H61.8195C61.8195 12.5033 61.7062 13 61.4795 13.5C61.2529 13.9933 60.9195 14.4467 60.4795 14.86C60.0395 15.2733 59.4929 15.6033 58.8395 15.85C58.1929 16.0967 57.4429 16.22 56.5895 16.22ZM71.5158 16V12.17C71.5158 12.01 71.5158 11.81 71.5158 11.57C71.5158 11.33 71.5158 11.0867 71.5158 10.84C71.5158 10.5933 71.5158 10.39 71.5158 10.23C71.5158 9.35 71.3424 8.67667 70.9958 8.21C70.6558 7.73667 70.0724 7.5 69.2458 7.5C68.6924 7.5 68.2191 7.61 67.8258 7.83C67.4391 8.04333 67.1424 8.34333 66.9358 8.73C66.7291 9.11667 66.6258 9.56333 66.6258 10.07L65.6658 9.56C65.6658 8.71333 65.8558 7.96333 66.2358 7.31C66.6224 6.65 67.1558 6.13333 67.8358 5.76C68.5158 5.38667 69.2958 5.2 70.1758 5.2C71.4624 5.2 72.4458 5.58333 73.1258 6.35C73.8058 7.11 74.1458 8.17 74.1458 9.53C74.1458 9.87667 74.1458 10.29 74.1458 10.77C74.1458 11.2433 74.1458 11.7767 74.1458 12.37V16H71.5158ZM63.9958 16V0.369999H66.6258V16H63.9958Z" fill="white"/>
<path d="M78.1711 16.28C77.7578 16.28 77.4078 16.1367 77.1211 15.85C76.8344 15.5633 76.6911 15.2133 76.6911 14.8C76.6911 14.3933 76.8344 14.0467 77.1211 13.76C77.4078 13.4667 77.7578 13.32 78.1711 13.32C78.5778 13.32 78.9244 13.4667 79.2111 13.76C79.5044 14.0467 79.6511 14.3933 79.6511 14.8C79.6511 15.2133 79.5044 15.5633 79.2111 15.85C78.9244 16.1367 78.5778 16.28 78.1711 16.28Z" fill="#FFB800"/>
<path d="M12.8927 3.41983C12.4661 3.41983 12.0927 3.30649 11.7727 3.07983C11.4594 2.84649 11.3027 2.52316 11.3027 2.10983C11.3027 1.70316 11.4594 1.38649 11.7727 1.15982C12.0927 0.933157 12.4661 0.819824 12.8927 0.819824C13.3127 0.819824 13.6794 0.933157 13.9927 1.15982C14.3061 1.38649 14.4627 1.70316 14.4627 2.10983C14.4627 2.52316 14.3061 2.84649 13.9927 3.07983C13.6794 3.30649 13.3127 3.41983 12.8927 3.41983Z" fill="#FFB800"/>
</svg>
