<svg width="91" height="30" viewBox="0 0 91 30" fill="none" xmlns="http://www.w3.org/2000/svg">
<path d="M2.628 1.8H9C13.392 1.8 15.588 4.032 15.588 8.496C15.588 10.824 14.952 12.648 13.68 13.968C12.432 15.264 10.644 15.912 8.316 15.912H5.796V27H2.628V1.8ZM8.1 13.536C9.468 13.536 10.524 13.068 11.268 12.132C12.036 11.196 12.42 9.984 12.42 8.496C12.42 7.08 12.048 6.012 11.304 5.292C10.584 4.548 9.516 4.176 8.1 4.176H5.796V13.536H8.1ZM23.0445 27.252C21.3645 27.252 20.0565 26.832 19.1205 25.992C18.2085 25.128 17.7525 23.94 17.7525 22.428V12.852C17.7525 11.34 18.2085 10.164 19.1205 9.324C20.0565 8.46 21.3645 8.028 23.0445 8.028C24.7245 8.028 26.0205 8.46 26.9325 9.324C27.8685 10.164 28.3365 11.34 28.3365 12.852V22.428C28.3365 23.94 27.8685 25.128 26.9325 25.992C26.0205 26.832 24.7245 27.252 23.0445 27.252ZM23.0445 25.02C23.8125 25.02 24.4125 24.804 24.8445 24.372C25.3005 23.916 25.5285 23.268 25.5285 22.428V12.852C25.5285 12.012 25.3005 11.376 24.8445 10.944C24.4125 10.488 23.8125 10.26 23.0445 10.26C22.2765 10.26 21.6645 10.488 21.2085 10.944C20.7765 11.376 20.5605 12.012 20.5605 12.852V22.428C20.5605 23.268 20.7765 23.916 21.2085 24.372C21.6645 24.804 22.2765 25.02 23.0445 25.02ZM31.9373 8.28H34.1693L34.4933 9.612L35.3933 9.18C36.1613 8.796 36.7973 8.508 37.3013 8.316C37.8293 8.124 38.3573 8.028 38.8853 8.028V10.152C38.5733 10.152 38.1533 10.248 37.6253 10.44C37.0973 10.608 36.1613 11.016 34.8173 11.664V27H31.9373V8.28ZM46.7902 27C45.4702 27 44.4262 26.604 43.6582 25.812C42.8902 25.02 42.5062 23.952 42.5062 22.608V10.44H40.3462V8.28H42.5062V2.844L45.3862 1.764V8.28H48.2662V10.44H45.3862V22.86C45.3862 23.436 45.5422 23.916 45.8542 24.3C46.1902 24.66 46.6342 24.84 47.1862 24.84H48.2662V27H46.7902ZM55.7047 27.252C54.0247 27.252 52.7167 26.832 51.7807 25.992C50.8687 25.128 50.4127 23.94 50.4127 22.428V12.852C50.4127 11.34 50.8687 10.164 51.7807 9.324C52.7167 8.46 54.0247 8.028 55.7047 8.028C57.3847 8.028 58.6807 8.46 59.5927 9.324C60.5287 10.164 60.9967 11.34 60.9967 12.852V22.428C60.9967 23.94 60.5287 25.128 59.5927 25.992C58.6807 26.832 57.3847 27.252 55.7047 27.252ZM55.7047 25.02C56.4727 25.02 57.0727 24.804 57.5047 24.372C57.9607 23.916 58.1887 23.268 58.1887 22.428V12.852C58.1887 12.012 57.9607 11.376 57.5047 10.944C57.0727 10.488 56.4727 10.26 55.7047 10.26C54.9367 10.26 54.3247 10.488 53.8687 10.944C53.4367 11.376 53.2207 12.012 53.2207 12.852V22.428C53.2207 23.268 53.4367 23.916 53.8687 24.372C54.3247 24.804 54.9367 25.02 55.7047 25.02ZM64.5975 5.22V2.34H67.4775V5.22H64.5975ZM64.5975 27V8.28H67.4775V27H64.5975ZM71.8045 8.28H74.0365L74.3605 9.324L75.8365 8.892C76.8445 8.58 77.6365 8.364 78.2125 8.244C78.8125 8.1 79.3765 8.028 79.9045 8.028C80.7685 8.028 81.4045 8.328 81.8125 8.928C82.2205 9.528 82.4245 10.308 82.4245 11.268V27H79.5445V12.204C79.5445 11.508 79.4965 11.028 79.4005 10.764C79.3045 10.476 79.0645 10.332 78.6805 10.332C78.4885 10.332 77.1565 10.716 74.6845 11.484V27H71.8045V8.28ZM85.7455 27V23.292H88.6255V27H85.7455Z" fill="white"/>
</svg>
